<?xml version="1.0" encoding="iso-8859-1"?>
<!-- Uploaded to: SVG Repo, www.svgrepo.com, Generator: SVG Repo Mixer Tools -->
<svg fill="#000000" height="800px" width="800px" version="1.1" id="Capa_1" xmlns="http://www.w3.org/2000/svg" xmlns:xlink="http://www.w3.org/1999/xlink" 
	 viewBox="0 0 440 440" xml:space="preserve">
<g id="XMLID_1010_">
	<path id="XMLID_1011_" d="M0,90v260h440V90H0z M30,290h380v30H30V290z M320,240v-40c11.045,0,20,8.954,20,20S331.045,240,320,240z
		 M290,260H150v-80h140V260z M120,200v40c-11.045,0-20-8.954-20-20S108.955,200,120,200z M349.965,260
		C362.122,250.87,370,236.339,370,220s-7.878-30.87-20.035-40H410v80H349.965z M410,150H30v-30h380V150z M30,180h60.035
		C77.878,189.13,70,203.661,70,220s7.878,30.87,20.035,40H30V180z"/>
</g>
</svg>